<?xml version="1.0" encoding="utf-8"?>
<!-- Generator: Adobe Illustrator 15.0.0, SVG Export Plug-In  -->
<!DOCTYPE svg PUBLIC "-//W3C//DTD SVG 1.1//EN" "http://www.w3.org/Graphics/SVG/1.1/DTD/svg11.dtd" [
	<!ENTITY ns_flows "http://ns.adobe.com/Flows/1.0/">
]>
<svg version="1.1"
	 xmlns="http://www.w3.org/2000/svg" xmlns:xlink="http://www.w3.org/1999/xlink" xmlns:a="http://ns.adobe.com/AdobeSVGViewerExtensions/3.0/"
	 x="0px" y="0px" width="123px" height="83px" viewBox="-1.029 -2.102 123 83" enable-background="new -1.029 -2.102 123 83"
	 xml:space="preserve">
<defs>
</defs>
<g>
	<g>
		<path d="M7.202,15.003c35.667,0,71.333,0,107,0c9.686,0,9.771-15.003,0.107-15.003c-35.666,0-71.333,0-107,0
			C-2.376,0-2.461,15.003,7.202,15.003L7.202,15.003z"/>
	</g>
</g>
<g>
	<g>
		<path d="M55.481,29.624c16.342,16.342,32.684,32.684,49.026,49.026c6.835,6.835,17.403-3.813,10.551-10.666
			C98.716,51.642,82.375,35.3,66.032,18.958C59.196,12.123,48.628,22.771,55.481,29.624L55.481,29.624z"/>
	</g>
</g>
<g>
	<g>
		<path d="M54.171,19.015C37.727,35.459,21.284,51.903,4.84,68.347c-6.835,6.836,3.813,17.403,10.665,10.551
			C31.949,62.455,48.392,46.01,64.836,29.567C71.671,22.731,61.023,12.163,54.171,19.015L54.171,19.015z"/>
	</g>
</g>
</svg>
